<svg xmlns="http://www.w3.org/2000/svg" viewBox="0 0 256 256" fill="none">
  <path d="M56 32H200L188 220L128 240L68 220L56 32Z" fill="#D8AF00"/>
  <path d="M128 32H200L188 220L128 240V32Z" fill="#E7BC00"/>
  <path d="M94 86H128V184C128 197.5 120.5 206 106 206C96 206 88 202.5 82 194L98 181.5C100.5 185.5 103.5 188 107.5 188C112.5 188 116 185 116 175V86H94Z" fill="white"/>
  <path d="M146 86H190V101H161V124H188C188 152.5 188 168.5 188 172C188 193.5 175 206 151 206C132.5 206 120 197.5 114.5 184L132.5 173.5C137 181 142.5 188 152 188C161 188 166.5 184 166.5 176V176C166.5 168.5 160 165.5 149 160.5L143 157.5C125.5 150 114 140.5 114 120.5C114 102 128 88 149.5 88C164.5 88 175.5 93 183.5 107L166.5 118C162.5 111 158.5 108.5 149.5 108.5C140.5 108.5 135.5 113.5 135.5 120C135.5 128 140.5 131 152.5 136L158.5 138.5C179 147.5 190 157.5 190 178C190 200 173 212 150 212C127.5 212 113 201 106.5 186.5L124.5 176C129.5 184 135 190 149.5 190C161.5 190 169 184.5 169 176C169 168.5 163 165.5 152 160.5L146 157.5C126.5 149 116 140 116 120.5C116 101.5 130 88 149.5 88C168.5 88 180.5 96 188 110.5L170.5 120.5C166.5 113 162.5 108.5 149.5 108.5C141.5 108.5 136.5 113 136.5 119.5C136.5 127.5 141.5 130.5 153 135L159 137.5C180.5 146.5 192 156.5 192 177.5C192 201 175.5 212 150 212C126.5 212 112 200.5 105 186.5L123.5 176.5C128.5 184.5 133.5 190 149.5 190C161 190 167.5 185.5 167.5 177V177C167.5 169.5 162 166.5 151.5 161.5L145.5 159C126.5 150.5 116 141 116 120.5C116 101.5 129.5 88 149.5 88Z" fill="white"/>
</svg>
