<?xml version="1.0" encoding="UTF-8" standalone="no"?>
<!-- Created with Inkscape (http://www.inkscape.org/) -->

<svg
   xmlns:dc="http://purl.org/dc/elements/1.1/"
   xmlns:cc="http://creativecommons.org/ns#"
   xmlns:rdf="http://www.w3.org/1999/02/22-rdf-syntax-ns#"
   xmlns:svg="http://www.w3.org/2000/svg"
   xmlns="http://www.w3.org/2000/svg"
   xmlns:sodipodi="http://sodipodi.sourceforge.net/DTD/sodipodi-0.dtd"
   xmlns:inkscape="http://www.inkscape.org/namespaces/inkscape"
   width="138.24219"
   height="88.863037"
   id="svg8355"
   version="1.1"
   inkscape:version="0.48.0 r9654"
   sodipodi:docname="outseal_logo_banner.svg">
  <defs
     id="defs8357" />
  <sodipodi:namedview
     id="base"
     pagecolor="#ffffff"
     bordercolor="#666666"
     borderopacity="1.0"
     inkscape:pageopacity="0.0"
     inkscape:pageshadow="2"
     inkscape:zoom="3.08"
     inkscape:cx="-0.67494611"
     inkscape:cy="4.608219"
     inkscape:document-units="px"
     inkscape:current-layer="layer1"
     showgrid="false"
     fit-margin-top="0"
     fit-margin-left="0"
     fit-margin-right="0"
     fit-margin-bottom="0"
     inkscape:window-width="1920"
     inkscape:window-height="1017"
     inkscape:window-x="-8"
     inkscape:window-y="-8"
     inkscape:window-maximized="1" />
  <metadata
     id="metadata8360">
    <rdf:RDF>
      <cc:Work
         rdf:about="">
        <dc:format>image/svg+xml</dc:format>
        <dc:type
           rdf:resource="http://purl.org/dc/dcmitype/StillImage" />
        <dc:title></dc:title>
      </cc:Work>
    </rdf:RDF>
  </metadata>
  <g
     inkscape:label="Layer 1"
     inkscape:groupmode="layer"
     id="layer1"
     transform="translate(-305.55372,-10.572159)">
    <g
       style="font-size:0.41962638px;font-style:normal;font-variant:normal;font-weight:normal;font-stretch:normal;text-align:start;line-height:125%;letter-spacing:0px;word-spacing:0px;writing-mode:lr-tb;text-anchor:start;fill:#000000;fill-opacity:1;fill-rule:evenodd;stroke:none;font-family:Arial Rounded MT Bold;-inkscape-font-specification:'Arial Rounded MT Bold, Normal'"
       id="text3354-8"
       transform="matrix(109.9219,0,0,109.9219,296.33356,74.339944)">
      <g
         style="font-size:0.36389479px;line-height:125%;fill:#000000;font-family:sans-serif"
         id="text3352" />
    </g>
    <path
       id="_140044664"
       style="fill:#ffffff;fill-rule:evenodd"
       d="m 390.27951,11.69163 c -4.16546,-1.7236003 -7.66243,-1.26309 -10.14503,0.0733 -6.69491,3.60409 -7.93684,13.66777 -2.97403,20.81983 2.11373,3.04734 2.86352,6.27 0.46573,8.19112 -2.90876,2.33137 -6.12504,0.97665 -9.04124,3.07948 -2.88354,2.07928 -6.18232,7.46248 -8.0536,5.44626 -1.87137,-2.01632 -0.3723,-5.21658 0.77264,-6.56156 1.49382,-1.75447 2.70759,-1.84447 4.79952,-1.91548 0.62257,-0.0212 0.68564,-0.16956 0.12369,-0.54987 -3.11029,-2.1039 -8.18254,-0.38319 -10.24005,2.51864 0,0 -2.76667,-1.78555 -6.61655,-1.06597 -2.94761,0.5504 -4.55727,1.58261 -5.15698,2.05289 -0.126,0.0985 -0.27601,0.28994 0.012,0.28298 1.25855,-0.0298 6.38854,0.17239 7.39378,2.83484 6.3479,16.8039 20.46246,20.47273 34.51393,15.47669 -0.72279,1.19371 -1.60047,2.47162 -2.56503,3.92029 -2.60798,3.91799 3.16767,1.95726 8.21061,-1.97906 2.00483,-1.56493 3.13331,-3.82698 3.76907,-5.98185 0.64901,0.42107 1.38163,0.79854 2.18296,1.06258 2.43044,0.79961 5.50186,0.74352 6.95108,0.5563 0.65241,-0.0842 0.75495,-0.783 0.42339,-0.98469 -1.41594,-0.86428 -3.788,-3.54052 -5.4268,-5.84205 1.03275,-1.50312 1.79745,-3.13155 2.28665,-4.88949 2.24248,-8.05476 -1.50883,-13.80004 -6.50773,-18.52741 -2.80613,-2.65384 -5.18329,-5.70799 -3.63217,-9.57562 3.04964,-1.25449 5.50585,-3.24727 6.23847,-6.51968 0.14548,-0.96291 -0.51432,-1.39829 -1.28196,-1.41086 -2.22653,-0.0361 -4.37629,-0.24633 -6.50252,-0.50984 l 0,-0.002 z m 6.79805,3.01296 c 0.17585,-0.33167 0.31227,-0.69543 0.40159,-1.09352 0.0791,-0.52355 -0.28011,-0.75952 -0.69653,-0.76644 -0.1523,-0.002 -0.30424,-0.006 -0.45537,-0.0114 0.0653,0.51268 0.24975,1.43893 0.75049,1.87138 z m -10.77627,-1.71156 c 0.46108,-0.0504 0.87589,0.28237 0.92627,0.7435 0.0504,0.46114 -0.28297,0.87579 -0.74405,0.92626 -0.46055,0.0504 -0.8759,-0.28299 -0.92574,-0.74413 -0.0504,-0.46113 0.28297,-0.87578 0.74352,-0.92563 z m 9.71825,2.19669 c 0.0997,0.0733 0.12033,0.21313 0.0476,0.3122 -0.0733,0.0991 -0.21313,0.12086 -0.3121,0.0476 -0.0991,-0.0733 -0.12033,-0.21251 -0.0476,-0.3122 0.0733,-0.0991 0.21313,-0.12024 0.3121,-0.0476 z m -0.13459,0.85694 c 0.0997,0.0733 0.12086,0.2125 0.0482,0.3122 -0.0733,0.0991 -0.21312,0.12025 -0.31227,0.0476 -0.0997,-0.0733 -0.12033,-0.21312 -0.0476,-0.31221 0.0728,-0.0991 0.21312,-0.12087 0.31156,-0.0476 z m -0.75727,-0.13742 c 0.0991,0.0733 0.12024,0.21303 0.0469,0.31211 -0.0727,0.0997 -0.21259,0.12033 -0.31209,0.0476 -0.0986,-0.0733 -0.12034,-0.21304 -0.047,-0.3122 0.0728,-0.0991 0.21259,-0.12025 0.31227,-0.0475 z m 43.33618,80.283771 0,-23.125 c 0,-1.067682 0.23743,-1.874972 0.7134,-2.421875 0.47486,-0.54685 1.11658,-0.820281 1.92385,-0.820314 0.80683,3e-5 1.45833,0.27021 1.95309,0.810553 0.49465,0.540387 0.74197,1.350938 0.74197,2.431641 l 0,23.125 c -1e-5,1.080752 -0.25062,1.891272 -0.75186,2.431637 -0.50125,0.540376 -1.14913,0.810564 -1.94342,0.810564 -0.78155,0 -1.41601,-0.279971 -1.90429,-0.839803 -0.48805,-0.559942 -0.73208,-1.360679 -0.73208,-2.402343 z m -10.27342,0.234376 c -1.28905,1.002597 -2.53579,1.754562 -3.7402,2.255861 -1.20442,0.501354 -2.55536,0.751976 -4.05271,0.751976 -1.36721,0 -2.56833,-0.270188 -3.60346,-0.810564 -1.03547,-0.540376 -1.83273,-1.272786 -2.39256,-2.197262 -0.5595,-0.924443 -0.83981,-1.927085 -0.83981,-3.007815 0,-1.458323 0.46278,-2.701815 1.38678,-3.730475 0.92444,-1.028649 2.19404,-1.718738 3.80857,-2.070313 0.33856,-0.07811 1.17837,-0.253919 2.51952,-0.527295 1.34116,-0.273376 2.49028,-0.524108 3.44726,-0.751976 0.95742,-0.227868 1.99542,-0.504541 3.1153,-0.83013 -0.0651,-1.406235 -0.34845,-2.438135 -0.8497,-3.095703 -0.50124,-0.657531 -1.53967,-0.986307 -3.11529,-0.986329 -1.35413,1.7e-5 -2.37311,0.188824 -3.0566,0.566405 -0.68371,0.377615 -1.26949,0.944021 -1.75776,1.699219 -0.48805,0.755219 -0.83321,1.253269 -1.03547,1.49414 -0.20225,0.240905 -0.63425,0.361346 -1.29883,0.361324 -0.59908,1.4e-5 -1.11659,-0.192033 -1.55276,-0.576166 -0.43639,-0.3841 -0.65404,-0.875638 -0.65404,-1.474609 0,-0.93748 0.33197,-1.848941 0.9959,-2.734376 0.66393,-0.885398 1.69917,-1.614563 3.10551,-2.187499 1.40623,-0.572891 3.15751,-0.859359 5.25394,-0.85937 2.34375,2.1e-5 4.18615,0.276718 5.52731,0.830076 1.34116,0.553401 2.28835,1.429056 2.84181,2.626953 0.55291,1.197933 0.82991,2.786474 0.82991,4.765625 -2e-5,1.25001 -0.003,2.311207 -0.01,3.183591 -0.007,0.87245 -0.0163,1.842456 -0.0293,2.910161 -2e-5,1.002597 0.16598,2.047526 0.49794,3.134763 0.33197,1.087238 0.49795,1.787111 0.49795,2.099608 -2e-5,0.546861 -0.25722,1.044917 -0.77165,1.494135 -0.51444,0.449251 -1.09702,0.673821 -1.74809,0.673821 -0.54741,0 -1.08713,-0.257107 -1.62113,-0.771432 -0.53422,-0.514324 -1.10032,-1.25976 -1.69917,-2.236328 z m -0.35175,-7.714847 c -0.78154,0.286457 -1.91737,0.589182 -3.40824,0.908175 -1.49087,0.318993 -2.52281,0.553347 -3.09573,0.70317 -0.57269,0.149714 -1.11977,0.442766 -1.64058,0.878936 -0.52103,0.43617 -0.78155,1.044917 -0.78155,1.826176 -1e-5,0.807267 0.30559,1.494147 0.91785,2.060552 0.61227,0.566428 1.41272,0.849587 2.40234,0.849587 1.05416,3e-6 2.02795,-0.231166 2.91997,-0.693388 0.89147,-0.462221 1.54616,-1.057888 1.96287,-1.78711 0.48146,-0.807266 0.72219,-2.135409 0.72219,-3.984372 z m -21.99201,1.191409 -10.42968,0 c 0.013,1.210943 0.2571,2.278648 0.73241,3.203124 0.4753,0.924443 1.10676,1.621095 1.89452,2.089846 0.7877,0.468707 1.65689,0.70317 2.60743,0.70317 0.63798,2e-6 1.22069,-0.07487 1.74804,-0.22457 0.5273,-0.149714 1.03843,-0.384067 1.5332,-0.703171 0.49476,-0.318993 0.9505,-0.66085 1.36719,-1.025351 0.4166,-0.364611 0.95698,-0.85937 1.62109,-1.484374 0.27371,-0.234354 0.66393,-0.351531 1.17188,-0.351531 0.54631,7e-6 0.9893,0.149714 1.32808,0.449251 0.33856,0.299537 0.50784,0.722627 0.50784,1.269532 -3e-5,0.481788 -0.18907,1.044918 -0.5661,1.689456 -0.37813,0.644582 -0.94753,1.263024 -1.70896,1.85547 -0.76176,0.592479 -1.71877,1.08394 -2.87109,1.474614 -1.15236,0.390662 -2.47723,0.585883 -3.97461,0.585883 -3.42449,0 -6.08725,-0.976546 -7.98828,-2.929682 -1.90104,-1.953125 -2.85156,-4.602859 -2.85156,-7.949222 0,-1.575511 0.23435,-3.037098 0.70317,-4.384766 0.46871,-1.34764 1.15234,-2.503238 2.05078,-3.466797 0.89839,-0.96352 2.00521,-1.702454 3.32031,-2.216797 1.3151,-0.514303 2.77343,-0.771465 4.375,-0.771487 2.08332,2.1e-5 3.87043,0.439468 5.36133,1.318359 1.49087,0.878925 2.60741,2.014992 3.34961,3.408203 0.74197,1.393244 1.11329,2.812514 1.11329,4.257812 -2e-5,1.341157 -0.38363,2.210299 -1.15231,2.607424 -0.76836,0.397148 -1.849,0.595667 -3.24219,0.595667 z M 395.417,86.8766 l 9.66797,0 c -0.13023,-1.822898 -0.62177,-3.186829 -1.47462,-4.091792 -0.85288,-0.904931 -1.97592,-1.357404 -3.36914,-1.357422 -1.32813,1.8e-5 -2.41863,0.459001 -3.27148,1.376953 -0.85288,0.91798 -1.37045,2.275404 -1.55274,4.072266 z m -9.00391,5.585942 c -2e-5,1.47136 -0.35812,2.73112 -1.07426,3.779302 -0.71615,1.048215 -1.77411,1.842445 -3.17383,2.38281 -1.39976,0.540376 -3.10223,0.810564 -5.10743,0.810564 -1.91407,0 -3.5547,-0.292942 -4.92187,-0.878935 -1.36719,-0.585884 -2.3763,-1.31836 -3.02735,-2.197262 -0.65107,-0.878936 -0.97655,-1.76107 -0.97655,-2.646491 0,-0.585884 0.20831,-1.087237 0.62502,-1.503907 0.41671,-0.416714 0.94401,-0.625016 1.58203,-0.625016 0.55994,6e-6 0.98963,0.136743 1.28906,0.410118 0.29943,0.273486 0.58589,0.657553 0.85937,1.152345 0.54687,0.950494 1.20116,1.660161 1.96289,2.128901 0.76176,0.468707 1.80013,0.70317 3.11523,0.70317 1.06767,3e-6 1.94334,-0.237651 2.62696,-0.712843 0.6836,-0.475302 1.02535,-1.018866 1.02535,-1.630856 -1e-5,-0.937524 -0.35483,-1.621085 -1.06448,-2.05078 -0.70966,-0.429685 -1.87827,-0.839804 -3.50586,-1.230466 -1.83595,-0.455736 -3.33009,-0.934226 -4.48242,-1.435547 -1.15235,-0.501244 -2.07357,-1.162094 -2.76367,-1.98242 -0.69009,-0.820347 -1.03513,-1.829413 -1.03513,-3.027343 0,-1.067694 0.31899,-2.076806 0.95698,-3.027344 0.63798,-0.950505 1.57877,-1.708964 2.82226,-2.275391 1.24348,-0.566383 2.74414,-0.849586 4.50195,-0.849608 1.38021,2.2e-5 2.62043,0.14325 3.72071,0.429685 1.10024,0.286478 2.01821,0.670589 2.7539,1.152343 0.73571,0.481787 1.29555,1.015645 1.67969,1.601563 0.38406,0.58595 0.5761,1.15887 0.57621,1.71875 -2e-5,0.61199 -0.20512,1.113296 -0.61524,1.503906 -0.41011,0.39064 -0.99281,0.58595 -1.74804,0.585939 -0.54686,1.4e-5 -1.01238,-0.156232 -1.39648,-0.468751 -0.38418,-0.312486 -0.82354,-0.781237 -1.31836,-1.406251 -0.40363,-0.520821 -0.87894,-0.93748 -1.42579,-1.25 -0.54686,-0.312486 -1.28907,-0.468729 -2.22656,-0.468751 -0.96358,1.8e-5 -1.76434,0.205092 -2.40235,0.615233 -0.63798,0.410174 -0.95709,0.921245 -0.95698,1.533204 0,0.559909 0.23436,1.018899 0.70317,1.376953 0.46871,0.358082 1.10026,0.65431 1.89454,0.888675 0.7943,0.234353 1.88801,0.52081 3.28125,0.859369 1.65363,0.403633 3.00454,0.885421 4.05273,1.445308 1.0481,0.559942 1.84242,1.220716 2.38281,1.98242 0.54038,0.761758 0.81056,1.630867 0.81056,2.607424 z m -31.01562,-14.238281 0.58588,0 0,-3.203124 c 0,-0.859351 0.0228,-1.533179 0.0684,-2.021485 0.0456,-0.488251 0.17258,-0.908175 0.38088,-1.259765 0.2083,-0.364556 0.50784,-0.660785 0.89839,-0.888675 0.39066,-0.227835 0.82683,-0.341769 1.3086,-0.341791 0.67712,2.8e-5 1.28905,0.25393 1.83594,0.761715 0.36461,0.33857 0.59566,0.751975 0.69338,1.240233 0.0976,0.488306 0.14653,1.181666 0.14653,2.080079 l 0,3.632812 1.95313,0 c 0.75516,2.1e-5 1.33136,0.179051 1.72851,0.537111 0.39714,0.358093 0.59566,0.817072 0.59566,1.376953 -1e-5,0.716163 -0.28327,1.217466 -0.84958,1.503905 -0.56643,0.286479 -1.37697,0.429707 -2.43164,0.429685 l -0.99611,0 0,9.804687 c -1e-5,0.833318 0.0293,1.474614 0.0879,1.923832 0.0586,0.44925 0.21479,0.813751 0.46871,1.093722 0.25392,0.279972 0.66733,0.419902 1.24023,0.419902 0.31251,3e-6 0.73571,-0.05534 1.26954,-0.165982 0.53389,-0.110691 0.95049,-0.165982 1.24999,-0.165982 0.42969,3e-6 0.81705,0.172577 1.16211,0.517622 0.34504,0.345045 0.51751,0.771542 0.51762,1.279293 -10e-6,0.85937 -0.46882,1.516933 -1.40625,1.972659 -0.93753,0.455736 -2.28517,0.683604 -4.04297,0.683604 -1.66668,0 -2.9297,-0.279971 -3.78907,-0.839803 -0.85936,-0.559943 -1.42253,-1.334639 -1.68945,-2.324222 -0.26689,-0.989627 -0.40045,-2.311196 -0.40034,-3.964839 l 0,-10.234375 -0.70317,0 c -0.76824,1.6e-5 -1.35417,-0.182273 -1.75781,-0.546873 -0.40364,-0.364567 -0.60545,-0.82681 -0.60545,-1.386718 0,-0.559876 0.2116,-1.018855 0.6348,-1.376953 0.4232,-0.358049 1.03843,-0.53709 1.84569,-0.537112 z m -10.58594,18.203126 0,-0.683605 c -0.63799,0.807267 -1.30861,1.484375 -2.01171,2.031247 -0.70317,0.546862 -1.47137,0.953793 -2.30469,1.220705 -0.83332,0.26689 -1.78387,0.400336 -2.85156,0.400336 -1.28908,-2e-6 -2.44468,-0.266891 -3.4668,-0.800782 -1.02216,-0.53389 -1.81315,-1.269532 -2.37305,-2.207033 -0.66403,-1.132812 -0.99611,-2.760414 -0.99611,-4.882808 l 0,-10.566407 c 0,-1.067693 0.24084,-1.865215 0.72263,-2.392578 0.48179,-0.527318 1.11978,-0.790998 1.91406,-0.79102 0.80726,2.2e-5 1.45832,0.266945 1.95312,0.800781 0.49476,0.533868 0.7422,1.328144 0.7422,2.382813 l 0,8.535156 c -10e-6,1.236984 0.10415,2.275395 0.3125,3.115231 0.2083,0.839803 0.5827,1.4974 1.12305,1.972658 0.54038,0.475303 1.27278,0.712844 2.19726,0.712844 0.8984,3e-6 1.74478,-0.26689 2.53907,-0.800781 0.79429,-0.533891 1.37368,-1.230466 1.73828,-2.089846 0.29943,-0.755164 0.44925,-2.40884 0.44925,-4.960941 l 0,-6.484374 c -1e-5,-1.054667 0.24744,-1.848939 0.7422,-2.382813 0.49475,-0.533836 1.1393,-0.800759 1.93359,-0.800781 0.79429,2.2e-5 1.43227,0.263692 1.91406,0.79102 0.48178,0.527361 0.72262,1.324889 0.72262,2.392579 l 0,15.449218 c -2e-5,1.015679 -0.23116,1.777349 -0.69338,2.285156 -0.46223,0.507839 -1.058,0.761758 -1.78711,0.761758 -0.72923,0 -1.3314,-0.263702 -1.80665,-0.790998 -0.4753,-0.527295 -0.71295,-1.266278 -0.71284,-2.216795 z m -18.02734,-7.832032 c -3e-5,1.588547 -0.24744,3.053388 -0.7422,4.394534 -0.49476,1.341146 -1.21095,2.493491 -2.14843,3.457033 -0.93753,0.963575 -2.05731,1.70247 -3.35938,2.216795 -1.3021,0.514325 -2.76694,0.771432 -4.39453,0.771432 -1.6146,0 -3.06642,-0.260405 -4.35547,-0.781215 -1.28907,-0.52081 -2.40561,-1.266278 -3.34961,-2.236328 -0.94401,-0.970061 -1.66016,-2.115876 -2.14844,-3.4375 -0.48828,-1.321602 -0.73242,-2.783189 -0.73242,-4.384762 0,-1.614577 0.24739,-3.092433 0.7422,-4.433594 0.49479,-1.341129 1.20442,-2.486962 2.1289,-3.4375 0.92444,-0.950506 2.04426,-1.682922 3.35938,-2.197265 1.31509,-0.514303 2.76692,-0.771465 4.35547,-0.771487 1.61456,2.2e-5 3.07941,0.260438 4.39453,0.781248 1.31509,0.520854 2.44139,1.26304 3.37891,2.226562 0.93753,0.963565 1.65037,2.109392 2.13868,3.4375 0.48827,1.328139 0.73241,2.792981 0.73241,4.394531 z m -5.35156,0 c -2e-5,-2.174464 -0.47849,-3.867174 -1.43555,-5.078125 -0.95709,-1.210921 -2.24286,-1.816389 -3.85742,-1.816407 -1.04173,1.8e-5 -1.95965,0.270199 -2.75391,0.810553 -0.7943,0.540377 -1.40626,1.337906 -1.83594,2.392578 -0.42968,1.054701 -0.64458,2.285169 -0.64458,3.691406 -1e-5,1.393238 0.2116,2.610689 0.6348,3.652342 0.4232,1.04162 1.02865,1.839202 1.8164,2.392582 0.7877,0.553347 1.71549,0.83013 2.7832,0.83013 1.61457,4e-6 2.90038,-0.608747 3.85743,-1.826176 0.95698,-1.21744 1.43552,-2.900388 1.43554,-5.048834 z" />
  </g>
</svg>
